#N canvas -97 23 749 852 10;
#X obj 114 -79 cnv 15 800 800 empty empty empty 20 12 0 14 -262144
-66577 0;
#X obj 479 -70 cnv 15 400 100 empty empty empty 20 12 0 14 -228856
-66577 0;
#X obj 579 31 cnv 15 300 600 empty empty empty 20 12 0 14 -228856 -66577
0;
#N canvas 518 117 450 300 gemwin 0;
#X obj 132 220 gemwin;
#X obj 67 89 outlet;
#X obj 67 10 inlet;
#X obj 67 41 route create;
#X msg 67 70 set destroy;
#X msg 142 68 set create;
#X msg 198 112 destroy;
#X msg 132 112 create \, 1;
#X msg 70 165 reset \, dimen 900 900 \, create \, 1;
#X connect 2 0 3 0;
#X connect 3 0 4 0;
#X connect 3 0 7 0;
#X connect 3 1 5 0;
#X connect 3 1 6 0;
#X connect 4 0 1 0;
#X connect 5 0 1 0;
#X connect 6 0 0 0;
#X connect 7 0 8 0;
#X connect 8 0 0 0;
#X restore 625 576 pd gemwin;
#X msg 625 554 destroy;
#X floatatom 458 142 5 0.01 16 1 - - -;
#X msg 458 160 refract \$1;
#X floatatom 315 142 5 0 0 1 - - -;
#X floatatom 378 141 5 0 0 1 - - -;
#X msg 316 162 width \$1;
#X msg 378 159 height \$1;
#X obj 297 204 pix_refraction;
#X obj 300 584 pix_texture;
#X obj 309 -60 gemhead;
#X obj 490 -62 bng 25 250 50 0 empty empty empty 0 -6 0 8 -262144 -1
-1;
#X obj 308 -36 openpanel;
#X msg 308 -16 open \$1;
#X obj 493 -26 hsl 256 15 0 112 0 0 empty empty empty -2 -8 0 10 -262144
-1 -1 25500 1;
#X floatatom 388 83 5 0 0 1 - - -;
#X obj 509 677 square 4;
#X obj 509 652 gemhead;
#X obj 733 66 tgl 15 1 empty empty empty 17 7 0 10 -262144 -1 -1 1
1;
#X obj 289 694 pix_write;
#X obj 308 99 pix_film;
#X floatatom 424 278 5 0.01 16 1 - - -;
#X msg 431 305 refract \$1;
#X floatatom 299 279 5 0 0 1 - - -;
#X floatatom 358 279 5 0 0 1 - - -;
#X msg 299 307 width \$1;
#X msg 363 307 height \$1;
#X obj 299 344 pix_refraction;
#X obj 732 231 tgl 15 1 empty empty empty 17 7 0 10 -262144 -1 -1 0
1;
#X msg 373 606 auto 0;
#X msg 252 664 bang;
#X msg 373 654 0 0;
#X floatatom 251 150 0 0 0 0 - - -;
#X msg 175 24 bang;
#X msg 240 125 stop;
#X obj 175 102 float;
#X obj 175 50 trigger bang bang;
#X msg 242 76 -1;
#X msg 373 630 file carac [JPEG];
#X msg 373 677 900 900;
#X floatatom 298 375 5 0 0 2 - - -;
#X floatatom 338 375 5 0 255 2 - - -;
#X obj 338 393 / 255;
#X floatatom 378 375 5 0 255 2 - - -;
#X obj 378 393 / 255;
#X obj 298 417 pix_backlight;
#X obj 298 394 / 100;
#X floatatom 386 447 5 0 0 2 - - -;
#X obj 299 462 pix_scanline;
#X msg 322 440 mode \$1;
#X floatatom 376 231 5 0 0 2 - - -;
#X obj 297 252 pix_scanline;
#X msg 297 228 mode \$1;
#X obj 618 21 hsl 128 15 0 255 0 0 empty empty empty -2 -8 0 10 -262144
-1 -1 0 1;
#X obj 733 135 tgl 15 1 empty empty empty 17 7 0 10 -262144 -1 -1 1
1;
#X obj 490 -3 bng 25 250 50 0 empty empty empty 0 -6 0 8 -262144 -1
-1;
#X obj 732 328 tgl 15 1 empty empty empty 0 -6 0 8 -262144 -1 -1 0
1;
#X obj 731 402 tgl 15 1 empty empty empty 0 -6 0 8 -262144 -1 -1 1
1;
#X obj 300 614 square 3;
#X floatatom 432 498 5 0.01 16 1 - - -;
#X msg 436 523 refract \$1;
#X floatatom 307 499 5 0 0 1 - - -;
#X floatatom 366 499 5 0 0 1 - - -;
#X msg 311 524 width \$1;
#X msg 370 524 height \$1;
#X obj 300 549 pix_refraction;
#X obj 728 505 tgl 15 1 empty empty empty 17 7 0 10 -262144 -1 -1 0
1;
#X text 757 118 scan H;
#X text 756 134 active/désactive;
#X text 755 229 active/désactive;
#X text 756 183 distance H;
#X text 755 199 distance V;
#X text 755 214 réfraction;
#X text 756 280 profondeur;
#X text 756 296 maximum;
#X text 756 312 minimum;
#X text 755 328 active/désactive;
#X text 755 386 scan H;
#X text 754 402 active/désactive;
#X text 751 507 active/désactive;
#X text 752 461 distance H;
#X text 751 477 distance V;
#X text 751 492 réfraction;
#X text 757 63 active/désactive;
#X text 757 19 distance H;
#X text 757 34 distance V;
#X text 757 49 réfraction;
#X text 761 -30 caractère;
#X obj 240 99 select 112;
#X obj 175 76 metro 100;
#X obj 432 53 int;
#X obj 175 128 + 1;
#X obj 432 29 + 0.1;
#X obj 624 599 bng 15 250 50 0 empty empty empty 17 7 0 10 -262144
-1 -1;
#X text 646 599 réinitialiser la numérotation de rendu;
#X text 679 553 créer/détruire la fenêtre GEM;
#X text 724 4 FX1a;
#X text 721 169 FX1b;
#X text 718 443 FX1c;
#X text 722 104 FX2a;
#X text 720 370 FX2b;
#X text 727 266 FX3;
#X obj 617 313 hsl 128 15 0 255 0 0 empty empty empty -2 -8 0 10 -262144
-1 -1 0 1;
#X obj 617 298 hsl 128 15 0 255 0 0 empty empty empty -2 -8 0 10 -262144
-1 -1 10700 1;
#X obj 617 283 hsl 128 15 0 100 0 1 empty empty empty -8 0 0 1.65798e+07
-262144 -1 -1 5100 0;
#X obj 616 387 hsl 128 15 0 255 0 0 empty empty empty -2 -8 0 10 -262144
-1 -1 7100 1;
#X obj 618 120 hsl 128 15 0 255 0 0 empty empty empty -2 -8 0 10 -262144
-1 -1 6100 1;
#X obj 618 36 hsl 128 15 0 255 0 0 empty empty empty -2 -8 0 10 -262144
-1 -1 0 1;
#X obj 618 51 hsl 128 15 0 16 0 0 empty empty empty -2 -8 0 10 -262144
-1 -1 0 1;
#X obj 617 186 hsl 128 15 0 255 0 0 empty empty empty -2 -8 0 10 -262144
-1 -1 0 1;
#X obj 617 201 hsl 128 15 0 255 0 0 empty empty empty -2 -8 0 10 -262144
-1 -1 0 1;
#X obj 617 216 hsl 128 15 0 16 0 0 empty empty empty -2 -8 0 10 -262144
-1 -1 700 1;
#X obj 613 461 hsl 128 15 0 255 0 0 empty empty empty -2 -8 0 10 -262144
-1 -1 7100 1;
#X obj 613 476 hsl 128 15 0 255 0 0 empty empty empty -2 -8 0 10 -262144
-1 -1 2300 1;
#X obj 613 491 hsl 128 15 0 16 0 0 empty empty empty -2 -8 0 10 -262144
-1 -1 700 1;
#X text 522 3 rendu;
#X text 525 -60 ouvrir "[sequence].mov";
#X connect 3 0 4 0;
#X connect 4 0 3 0;
#X connect 5 0 6 0;
#X connect 6 0 11 0;
#X connect 7 0 9 0;
#X connect 8 0 10 0;
#X connect 9 0 11 0;
#X connect 10 0 11 0;
#X connect 11 0 54 0;
#X connect 12 0 61 0;
#X connect 13 0 23 0;
#X connect 14 0 15 0;
#X connect 15 0 16 0;
#X connect 16 0 23 0;
#X connect 17 0 95 0;
#X connect 18 0 23 1;
#X connect 20 0 19 0;
#X connect 21 0 11 0;
#X connect 23 0 11 0;
#X connect 24 0 25 0;
#X connect 25 0 30 0;
#X connect 26 0 28 0;
#X connect 27 0 29 0;
#X connect 28 0 30 0;
#X connect 29 0 30 0;
#X connect 30 0 48 0;
#X connect 31 0 30 0;
#X connect 32 0 22 0;
#X connect 33 0 22 0;
#X connect 34 0 22 1;
#X connect 35 0 33 0;
#X connect 35 0 17 0;
#X connect 36 0 39 0;
#X connect 37 0 92 0;
#X connect 38 0 94 0;
#X connect 39 0 92 0;
#X connect 39 1 40 0;
#X connect 40 0 38 1;
#X connect 41 0 22 0;
#X connect 42 0 22 2;
#X connect 43 0 49 0;
#X connect 44 0 45 0;
#X connect 45 0 48 2;
#X connect 46 0 47 0;
#X connect 47 0 48 3;
#X connect 48 0 51 0;
#X connect 49 0 48 1;
#X connect 50 0 51 1;
#X connect 51 0 68 0;
#X connect 52 0 51 0;
#X connect 53 0 54 1;
#X connect 54 0 30 0;
#X connect 55 0 54 0;
#X connect 56 0 7 0;
#X connect 57 0 54 0;
#X connect 58 0 36 0;
#X connect 59 0 48 0;
#X connect 60 0 51 0;
#X connect 61 0 22 0;
#X connect 62 0 63 0;
#X connect 63 0 68 0;
#X connect 64 0 66 0;
#X connect 65 0 67 0;
#X connect 66 0 68 0;
#X connect 67 0 68 0;
#X connect 68 0 12 0;
#X connect 69 0 68 0;
#X connect 91 0 37 0;
#X connect 92 0 38 0;
#X connect 93 0 18 0;
#X connect 94 0 38 1;
#X connect 94 0 35 0;
#X connect 94 0 91 0;
#X connect 95 0 93 0;
#X connect 96 0 32 0;
#X connect 96 0 41 0;
#X connect 96 0 34 0;
#X connect 96 0 42 0;
#X connect 105 0 46 0;
#X connect 106 0 44 0;
#X connect 107 0 43 0;
#X connect 108 0 50 0;
#X connect 109 0 53 0;
#X connect 110 0 8 0;
#X connect 111 0 5 0;
#X connect 112 0 26 0;
#X connect 113 0 27 0;
#X connect 114 0 24 0;
#X connect 115 0 64 0;
#X connect 116 0 65 0;
#X connect 117 0 62 0;
